HIERARCHY
ROOT Hips
{
	OFFSET 0.00000 0.00000 0.00000
	CHANNELS 6 Xposition Yposition Zposition Zrotation Yrotation Xrotation 
	JOINT LHipJoint
	{
		OFFSET 0 0 0
		CHANNELS 3 Zrotation Yrotation Xrotation
		JOINT LeftHip
		{
			OFFSET 1.38691 -1.89057 0.78360
			CHANNELS 3 Zrotation Yrotation Xrotation
			JOINT LeftKnee
			{
				OFFSET 2.59731 -7.13606 0.00000
				CHANNELS 3 Zrotation Yrotation Xrotation
				JOINT LeftAnkle
				{
					OFFSET 2.70078 -7.42033 0.00000
					CHANNELS 3 Zrotation Yrotation Xrotation
					JOINT LeftToe
					{
						OFFSET 0.16751 -0.46024 2.68862
						CHANNELS 3 Zrotation Yrotation Xrotation
						End Site
						{
							OFFSET 0.00000 -0.00000 1.37057
						}
					}
				}
			}
		}
	}
	JOINT RHipJoint
	{
		OFFSET 0 0 0
		CHANNELS 3 Zrotation Yrotation Xrotation
		JOINT RightHip
		{
			OFFSET -1.38190 -1.89056 0.78359
			CHANNELS 3 Zrotation Yrotation Xrotation
			JOINT RightKnee
			{
				OFFSET -2.57785 -7.08258 0.00000
				CHANNELS 3 Zrotation Yrotation Xrotation
				JOINT RightAnkle
				{
					OFFSET -2.77908 -7.63547 0.00000
					CHANNELS 3 Zrotation Yrotation Xrotation
					JOINT RightToe
					{
						OFFSET -0.17921 -0.49237 2.62360
						CHANNELS 3 Zrotation Yrotation Xrotation
						End Site
						{
							OFFSET -0.00000 -0.00000 1.34085
						}
					}
				}
			}
		}
	}
	JOINT lowerback
	{
		OFFSET 0 0 0
		CHANNELS 3 Zrotation Yrotation Xrotation
		JOINT Chest
		{
			OFFSET -0.10749 2.04110 -0.22549
			CHANNELS 3 Zrotation Yrotation Xrotation
			JOINT Chest2
			{
				OFFSET 0.01213 2.05840 0.00691
				CHANNELS 3 Zrotation Yrotation Xrotation
				JOINT lowerneck
				{
					OFFSET 0 0 0
					CHANNELS 3 Zrotation Yrotation Xrotation
					JOINT Neck
					{
						OFFSET 0.06585 1.81215 0.35449
						CHANNELS 3 Zrotation Yrotation Xrotation
						JOINT Head
						{
							OFFSET -0.04315 1.87555 -0.27307
							CHANNELS 3 Zrotation Yrotation Xrotation
							End Site
							{
								OFFSET -0.01775 1.89740 -0.13294
							}
						}
					}
				}
				JOINT LeftCollar
				{
					OFFSET 0 0 0
					CHANNELS 3 Zrotation Yrotation Xrotation
					JOINT LeftShoulder
					{
						OFFSET 2.98012 1.63606 0.28888
CHANNELS 3 Zrotation Xrotation Yrotation
						JOINT LeftElbow
						{
OFFSET 0 -5.598640 -0.000000
CHANNELS 3 Zrotation Xrotation Yrotation
							JOINT LeftWrist
							{
OFFSET 0 -3.595420 -0.000000
CHANNELS 3 Zrotation Xrotation Yrotation
								JOINT lhand
								{
									OFFSET 0 0 0
CHANNELS 3 Zrotation Xrotation Yrotation
									JOINT LFingers
									{
OFFSET 0 -0.572010 -0.000000
CHANNELS 3 Zrotation Xrotation Yrotation
										End Site
										{
OFFSET 0 -0.461170 -0.000000
										}
									}
								}
								JOINT LThumb
								{
OFFSET 0 0.000000 0.000000
CHANNELS 3 Zrotation Xrotation Yrotation
									End Site
									{
OFFSET 0 -0.468210 0.468210
									}
								}
							}
						}
					}
				}
				JOINT RightCollar
				{
					OFFSET 0 0 0
					CHANNELS 3 Zrotation Yrotation Xrotation
					JOINT RightShoulder
					{
						OFFSET -3.08694 1.53706 0.36335
CHANNELS 3 Zrotation Xrotation Yrotation
						JOINT RightElbow
						{
OFFSET 0 -5.809400 -0.000000
CHANNELS 3 Zrotation Xrotation Yrotation
							JOINT RightWrist
							{
OFFSET 0 -3.669530 -0.000000
CHANNELS 3 Zrotation Xrotation Yrotation
								JOINT rhand
								{
									OFFSET 0 0 0
CHANNELS 3 Zrotation Xrotation Yrotation
									JOINT RFingers
									{
OFFSET 0 -0.578430 -0.000000
CHANNELS 3 Zrotation Xrotation Yrotation
										End Site
										{
OFFSET 0 -0.466350 -0.000000
										}
									}
								}
								JOINT RThumb
								{
OFFSET 0 0.000000 0.000000
CHANNELS 3 Zrotation Xrotation Yrotation
									End Site
									{
OFFSET 0 -0.473470 0.473470
									}
								}
							}
						}
					}
				}
			}
		}
	}
}
MOTION
Frames: 10
Frame Time: 0.008333333333333333
5.772221 18.809471 10.888335 -0.453429 17.517718 1.896846 0.000000 0.000000 0.000000 -16.370480 -15.324143 10.264357 1.051203 6.519581 18.299720 -0.030384 -7.923646 -4.884705 0.117339 2.208646 6.082544 0.000000 0.000000 0.000000 8.696451 25.305227 -33.767552 -6.812558 -15.171977 48.161709 0.175659 9.285951 -2.579502 -0.059484 1.573740 -4.329007 -4.384698 -0.966793 11.286615 -2.229752 -1.962863 0.609666 0.441738 -0.874501 -5.628884 6.529377 3.703300 -11.670327 -2.258830 4.786990 35.192884 -1.315848 2.692259 14.212336 0.000000 0.000000 0.000000 3.752507 -10.282057 -32.688458 18.091321 -28.273295 4.592735 21.223876 -19.707079 -17.211543 0.000000 0.000000 0.000000 -7.125000 0.000000 0.000000 -6.497740 48.254203 0.523457 0.000000 0.000000 0.000000 -4.531504 0.846780 29.144010 -21.137730 -31.988752 -6.122779 -37.180643 -12.822304 2.962648 0.000000 0.000000 0.000000 7.125000 0.000000 0.000000 -8.640733 33.603156 -2.438266
5.769103 18.810973 10.902725 -0.495275 17.543843 1.947443 0.000000 0.000000 0.000000 -16.276450 -15.280311 10.224908 1.046411 6.505313 18.257841 -0.030669 -7.891471 -4.853146 0.115823 2.194166 6.042544 0.000000 0.000000 0.000000 8.761346 25.235478 -33.758909 -6.798125 -15.159461 48.106450 0.182210 9.426684 -2.584775 -0.059800 1.577569 -4.339608 -4.339411 -0.954766 11.300238 -2.196317 -1.939591 0.621005 0.448124 -0.863988 -5.625591 6.553317 3.706166 -11.663898 -2.261695 4.785354 35.166677 -1.321436 2.694427 14.199835 0.000000 0.000000 0.000000 3.704574 -10.439495 -32.859107 18.372210 -28.630922 4.726407 21.439812 -20.185134 -17.291927 0.000000 0.000000 0.000000 -7.125000 0.000000 0.000000 -6.311518 48.370517 0.526674 0.000000 0.000000 0.000000 -4.598309 0.734743 28.986904 -21.073081 -31.913531 -6.088555 -37.088621 -12.843286 2.995665 0.000000 0.000000 0.000000 7.125000 0.000000 0.000000 -8.568610 33.641266 -2.409540
5.766238 18.812222 10.916608 -0.533325 17.573005 1.992471 0.000000 0.000000 0.000000 -16.192417 -15.240718 10.188180 1.042885 6.494589 18.226402 -0.030449 -7.863852 -4.835443 0.113105 2.168677 5.972173 0.000000 0.000000 0.000000 8.823710 25.154529 -33.734448 -6.780276 -15.144036 48.038283 0.190217 9.592474 -2.586758 -0.059800 1.577349 -4.338947 -4.299818 -0.945143 11.311330 -2.163262 -1.920052 0.631142 0.457673 -0.855247 -5.621918 6.572195 3.704476 -11.663164 -2.255892 4.774923 35.145595 -1.323860 2.693178 14.189992 0.000000 0.000000 0.000000 3.658224 -10.581559 -33.038046 18.652150 -28.983804 4.861346 21.660620 -20.606623 -17.350544 0.000000 0.000000 0.000000 -7.125000 0.000000 0.000000 -6.114730 48.465128 0.524324 0.000000 0.000000 0.000000 -4.653915 0.623972 28.820306 -21.001535 -31.830086 -6.050726 -36.997169 -12.841744 3.025709 0.000000 0.000000 0.000000 7.125000 0.000000 0.000000 -8.496550 33.675643 -2.381701
5.763487 18.813299 10.930148 -0.563211 17.606449 2.035044 0.000000 0.000000 0.000000 -16.121743 -15.202724 10.150082 1.040616 6.487689 18.206268 -0.029772 -7.838744 -4.832185 0.109131 2.129828 5.864634 0.000000 0.000000 0.000000 8.877338 25.066958 -33.695200 -6.759457 -15.125927 47.958582 0.199594 9.781673 -2.589427 -0.059115 1.568622 -4.314877 -4.269190 -0.937690 11.318253 -2.131863 -1.904452 0.640080 0.471048 -0.848219 -5.616761 6.583537 3.698676 -11.668310 -2.238613 4.755985 35.130566 -1.321602 2.688789 14.183118 0.000000 0.000000 0.000000 3.614328 -10.710262 -33.227033 18.930891 -29.332060 4.997312 21.881542 -20.987061 -17.381242 0.000000 0.000000 0.000000 -7.125000 0.000000 0.000000 -5.910406 48.530620 0.516263 0.000000 0.000000 0.000000 -4.697931 0.514285 28.642860 -20.923423 -31.738761 -6.009584 -36.904175 -12.816449 3.054210 0.000000 0.000000 0.000000 7.125000 0.000000 0.000000 -8.423062 33.707908 -2.354089
5.760800 18.814267 10.943438 -0.584952 17.643931 2.077250 0.000000 0.000000 0.000000 -16.062720 -15.164150 10.108689 1.039347 6.483842 18.195025 -0.028597 -7.815365 -4.841193 0.104003 2.079023 5.724050 0.000000 0.000000 0.000000 8.921803 24.975686 -33.644748 -6.736443 -15.105857 47.870323 0.210035 9.989280 -2.594369 -0.057867 1.552385 -4.270107 -4.246720 -0.932172 11.320164 -2.102405 -1.892303 0.647850 0.487413 -0.842720 -5.609712 6.586975 3.689559 -11.679785 -2.210714 4.730088 35.121609 -1.314673 2.681728 14.179478 0.000000 0.000000 0.000000 3.572725 -10.828079 -33.424612 19.209471 -29.677556 5.134458 22.105583 -21.335358 -17.398472 0.000000 0.000000 0.000000 -7.125000 0.000000 0.000000 -5.699461 48.582575 0.505101 0.000000 0.000000 0.000000 -4.732423 0.406346 28.457754 -20.840711 -31.641848 -5.966150 -36.811411 -12.774298 3.079276 0.000000 0.000000 0.000000 7.125000 0.000000 0.000000 -8.349410 33.735840 -2.327429
5.758168 18.815152 10.956497 -0.597748 17.685768 2.120080 0.000000 0.000000 0.000000 -16.015601 -15.123595 10.062671 1.039040 6.482920 18.192249 -0.026872 -7.793398 -4.862531 0.097663 2.015552 5.548563 0.000000 0.000000 0.000000 8.955990 24.881775 -33.583765 -6.711418 -15.083994 47.774194 0.221497 10.214558 -2.602525 -0.056060 1.528357 -4.203843 -4.232696 -0.928576 11.316099 -2.075290 -1.883583 0.654304 0.506486 -0.838748 -5.600407 6.581931 3.677058 -11.698162 -2.171751 4.697112 35.119213 -1.302790 2.671915 14.179404 0.000000 0.000000 0.000000 3.533681 -10.934944 -33.631260 19.488377 -30.020899 5.272993 22.333524 -21.653306 -17.406947 0.000000 0.000000 0.000000 -7.125000 0.000000 0.000000 -5.482388 48.626042 0.491703 0.000000 0.000000 0.000000 -4.757185 0.300855 28.265281 -20.753900 -31.539910 -5.920692 -36.719792 -12.716945 3.099861 0.000000 0.000000 0.000000 7.125000 0.000000 0.000000 -8.276238 33.758214 -2.302126
5.755744 18.816107 10.969278 -0.596793 17.734690 2.165549 0.000000 0.000000 0.000000 -15.984456 -15.074013 10.007138 1.039775 6.485124 18.198639 -0.024521 -7.771361 -4.899773 0.089657 1.930344 5.313210 0.000000 0.000000 0.000000 8.974133 24.785989 -33.509795 -6.684239 -15.060047 47.669593 0.234278 10.461296 -2.615821 -0.053489 1.492731 -4.105633 -4.228949 -0.926299 11.301408 -2.053106 -1.877780 0.658051 0.526392 -0.835956 -5.587699 6.569664 3.657960 -11.723137 -2.119524 4.651496 35.124942 -1.286116 2.657517 14.183151 0.000000 0.000000 0.000000 3.500332 -11.023752 -33.856035 19.768464 -30.361881 5.414028 22.553965 -21.941253 -17.396810 0.000000 0.000000 0.000000 -7.125000 0.000000 0.000000 -5.267677 48.648813 0.475248 0.000000 0.000000 0.000000 -4.764236 0.202865 28.055932 -20.662227 -31.431930 -5.872872 -36.631645 -12.640771 3.115654 0.000000 0.000000 0.000000 7.125000 0.000000 0.000000 -8.205426 33.774961 -2.278767
5.753320 18.817113 10.982009 -0.588557 17.787940 2.213106 0.000000 0.000000 0.000000 -15.960643 -15.014501 9.944630 1.040866 6.488448 18.208390 -0.021865 -7.750750 -4.945264 0.080937 1.833373 5.045423 0.000000 0.000000 0.000000 8.983773 24.691628 -33.427933 -6.656296 -15.035439 47.561988 0.247874 10.719440 -2.633444 -0.050307 1.447074 -3.979825 -4.230295 -0.924989 11.277908 -2.033418 -1.873658 0.659098 0.546655 -0.833980 -5.572853 6.550777 3.634839 -11.751982 -2.058285 4.598344 35.135662 -1.265775 2.640218 14.189188 0.000000 0.000000 0.000000 3.470293 -11.100289 -34.093437 20.047380 -30.698687 5.555827 22.770383 -22.212549 -17.376999 0.000000 0.000000 0.000000 -7.125000 0.000000 0.000000 -5.054392 48.660841 0.457420 0.000000 0.000000 0.000000 -4.759170 0.114397 27.836501 -20.570249 -31.323186 -5.824950 -36.548284 -12.553599 3.129513 0.000000 0.000000 0.000000 7.125000 0.000000 0.000000 -8.138383 33.789316 -2.256936
5.750920 18.818141 10.994692 -0.574953 17.844738 2.261782 0.000000 0.000000 0.000000 -15.941684 -14.944526 9.876694 1.042187 6.492462 18.220165 -0.019025 -7.732086 -4.995942 0.071756 1.726394 4.750118 0.000000 0.000000 0.000000 8.988017 24.598021 -33.339336 -6.628089 -15.010537 47.453248 0.262221 10.986312 -2.653398 -0.046611 1.392760 -3.830224 -4.236161 -0.925034 11.246682 -2.014809 -1.871619 0.657854 0.568490 -0.832973 -5.555938 6.526475 3.609011 -11.784270 -1.991740 4.540565 35.149979 -1.243032 2.620927 14.197093 0.000000 0.000000 0.000000 3.441987 -11.164935 -34.339451 20.325777 -31.032329 5.698573 22.980804 -22.470431 -17.349907 0.000000 0.000000 0.000000 -7.125000 0.000000 0.000000 -4.845125 48.664262 0.438836 0.000000 0.000000 0.000000 -4.744790 0.033921 27.611487 -20.477964 -31.213788 -5.777008 -36.469065 -12.460706 3.141588 0.000000 0.000000 0.000000 7.125000 0.000000 0.000000 -8.074543 33.801564 -2.236463
5.748569 18.819170 11.007327 -0.557030 17.904825 2.310850 0.000000 0.000000 0.000000 -15.925964 -14.862329 9.804046 1.043657 6.496870 18.233020 -0.016087 -7.716073 -5.049711 0.062280 1.609746 4.428308 0.000000 0.000000 0.000000 8.988972 24.504658 -33.244211 -6.600029 -14.985636 47.344901 0.277353 11.260596 -2.674186 -0.042424 1.329956 -3.657309 -4.246592 -0.926944 11.207750 -1.996151 -1.872280 0.654402 0.593171 -0.833193 -5.536766 6.497166 3.581318 -11.820043 -1.922544 4.480184 35.167094 -1.218718 2.600212 14.206716 0.000000 0.000000 0.000000 3.414220 -11.216574 -34.591552 20.604175 -31.363321 5.842546 23.182734 -22.716140 -17.316779 0.000000 0.000000 0.000000 -7.125000 0.000000 0.000000 -4.642681 48.659928 0.419958 0.000000 0.000000 0.000000 -4.722460 -0.038947 27.384215 -20.385337 -31.103751 -5.729115 -36.393920 -12.366095 3.151798 0.000000 0.000000 0.000000 7.125000 0.000000 0.000000 -8.013795 33.811701 -2.217364
